<svg width="138" height="46" viewBox="0 0 138 46" fill="none" xmlns="http://www.w3.org/2000/svg">
<rect x="0.5" y="0.5" width="137" height="45" rx="7.5" stroke="#008FF8"/>
<path d="M16.1222 30H14.4602L19.267 16.9091H20.9034L25.7102 30H24.0483L20.1364 18.9801H20.0341L16.1222 30ZM16.7358 24.8864H23.4347V26.2926H16.7358V24.8864ZM27.5447 33.6818V20.1818H29.0021V21.7415H29.1811C29.2919 21.571 29.4453 21.3537 29.6413 21.0895C29.8416 20.821 30.1271 20.5824 30.4979 20.3736C30.8729 20.1605 31.38 20.054 32.0192 20.054C32.8459 20.054 33.5746 20.2607 34.2053 20.674C34.8359 21.0874 35.3281 21.6733 35.6818 22.4318C36.0355 23.1903 36.2124 24.0852 36.2124 25.1165C36.2124 26.1562 36.0355 27.0575 35.6818 27.8203C35.3281 28.5788 34.8381 29.1669 34.2116 29.5845C33.5852 29.9979 32.8629 30.2045 32.0447 30.2045C31.4141 30.2045 30.9091 30.1001 30.5298 29.8913C30.1506 29.6783 29.8587 29.4375 29.6541 29.169C29.4496 28.8963 29.2919 28.6705 29.1811 28.4915H29.0533V33.6818H27.5447ZM29.0277 25.0909C29.0277 25.8324 29.1364 26.4865 29.3537 27.0533C29.571 27.6158 29.8885 28.0568 30.3061 28.3764C30.7237 28.6918 31.2351 28.8494 31.8402 28.8494C32.4709 28.8494 32.9972 28.6832 33.419 28.3509C33.8452 28.0142 34.1648 27.5625 34.3778 26.9957C34.5952 26.4247 34.7038 25.7898 34.7038 25.0909C34.7038 24.4006 34.5973 23.7784 34.3842 23.2244C34.1754 22.6662 33.858 22.2251 33.4318 21.9013C33.0099 21.5732 32.4794 21.4091 31.8402 21.4091C31.2266 21.4091 30.7109 21.5646 30.2933 21.8757C29.8757 22.1825 29.5604 22.6129 29.3473 23.1669C29.1342 23.7166 29.0277 24.358 29.0277 25.0909ZM38.5135 33.6818V20.1818H39.9709V21.7415H40.1499C40.2607 21.571 40.4141 21.3537 40.6101 21.0895C40.8104 20.821 41.0959 20.5824 41.4666 20.3736C41.8416 20.1605 42.3487 20.054 42.9879 20.054C43.8146 20.054 44.5433 20.2607 45.174 20.674C45.8047 21.0874 46.2969 21.6733 46.6506 22.4318C47.0043 23.1903 47.1811 24.0852 47.1811 25.1165C47.1811 26.1562 47.0043 27.0575 46.6506 27.8203C46.2969 28.5788 45.8068 29.1669 45.1804 29.5845C44.554 29.9979 43.8317 30.2045 43.0135 30.2045C42.3828 30.2045 41.8778 30.1001 41.4986 29.8913C41.1193 29.6783 40.8274 29.4375 40.6229 29.169C40.4183 28.8963 40.2607 28.6705 40.1499 28.4915H40.022V33.6818H38.5135ZM39.9964 25.0909C39.9964 25.8324 40.1051 26.4865 40.3224 27.0533C40.5398 27.6158 40.8572 28.0568 41.2749 28.3764C41.6925 28.6918 42.2038 28.8494 42.8089 28.8494C43.4396 28.8494 43.9659 28.6832 44.3878 28.3509C44.8139 28.0142 45.1335 27.5625 45.3466 26.9957C45.5639 26.4247 45.6726 25.7898 45.6726 25.0909C45.6726 24.4006 45.5661 23.7784 45.353 23.2244C45.1442 22.6662 44.8267 22.2251 44.4006 21.9013C43.9787 21.5732 43.4482 21.4091 42.8089 21.4091C42.1953 21.4091 41.6797 21.5646 41.2621 21.8757C40.8445 22.1825 40.5291 22.6129 40.3161 23.1669C40.103 23.7166 39.9964 24.358 39.9964 25.0909ZM53.4709 30.2045C52.5845 30.2045 51.8068 29.9936 51.1378 29.5717C50.473 29.1499 49.9531 28.5597 49.5781 27.8011C49.2074 27.0426 49.022 26.1562 49.022 25.142C49.022 24.1193 49.2074 23.2266 49.5781 22.4638C49.9531 21.701 50.473 21.1087 51.1378 20.6868C51.8068 20.2649 52.5845 20.054 53.4709 20.054C54.3572 20.054 55.1328 20.2649 55.7976 20.6868C56.4666 21.1087 56.9865 21.701 57.3572 22.4638C57.7322 23.2266 57.9197 24.1193 57.9197 25.142C57.9197 26.1562 57.7322 27.0426 57.3572 27.8011C56.9865 28.5597 56.4666 29.1499 55.7976 29.5717C55.1328 29.9936 54.3572 30.2045 53.4709 30.2045ZM53.4709 28.8494C54.1442 28.8494 54.6982 28.6768 55.1328 28.3317C55.5675 27.9865 55.8892 27.5327 56.098 26.9702C56.3068 26.4077 56.4112 25.7983 56.4112 25.142C56.4112 24.4858 56.3068 23.8743 56.098 23.3075C55.8892 22.7408 55.5675 22.2827 55.1328 21.9332C54.6982 21.5838 54.1442 21.4091 53.4709 21.4091C52.7976 21.4091 52.2436 21.5838 51.8089 21.9332C51.3743 22.2827 51.0526 22.7408 50.8438 23.3075C50.6349 23.8743 50.5305 24.4858 50.5305 25.142C50.5305 25.7983 50.6349 26.4077 50.8438 26.9702C51.0526 27.5327 51.3743 27.9865 51.8089 28.3317C52.2436 28.6768 52.7976 28.8494 53.4709 28.8494ZM60.2225 30V20.1818H61.731V30H60.2225ZM60.9895 18.5455C60.6955 18.5455 60.4419 18.4453 60.2289 18.245C60.0201 18.0447 59.9157 17.804 59.9157 17.5227C59.9157 17.2415 60.0201 17.0007 60.2289 16.8004C60.4419 16.6001 60.6955 16.5 60.9895 16.5C61.2836 16.5 61.535 16.6001 61.7438 16.8004C61.9569 17.0007 62.0634 17.2415 62.0634 17.5227C62.0634 17.804 61.9569 18.0447 61.7438 18.245C61.535 18.4453 61.2836 18.5455 60.9895 18.5455ZM66.0025 24.0938V30H64.494V20.1818H65.9513V21.7159H66.0792C66.3093 21.2173 66.6587 20.8168 67.1275 20.5142C67.5962 20.2074 68.2013 20.054 68.9428 20.054C69.6076 20.054 70.1893 20.1903 70.6879 20.4631C71.1864 20.7315 71.5742 21.1406 71.8512 21.6903C72.1282 22.2358 72.2667 22.9261 72.2667 23.7614V30H70.7582V23.8636C70.7582 23.0923 70.5579 22.4915 70.1573 22.0611C69.7567 21.6264 69.207 21.4091 68.5082 21.4091C68.0266 21.4091 67.5962 21.5135 67.217 21.7223C66.842 21.9311 66.5458 22.2358 66.3285 22.6364C66.1112 23.0369 66.0025 23.5227 66.0025 24.0938ZM79.2931 20.1818V21.4602H74.2051V20.1818H79.2931ZM75.688 17.8295H77.1966V27.1875C77.1966 27.6136 77.2583 27.9332 77.3819 28.1463C77.5098 28.3551 77.6717 28.4957 77.8677 28.5682C78.068 28.6364 78.2789 28.6705 78.5005 28.6705C78.6667 28.6705 78.8031 28.6619 78.9096 28.6449C79.0162 28.6236 79.1014 28.6065 79.1653 28.5938L79.4721 29.9489C79.3699 29.9872 79.2271 30.0256 79.0439 30.0639C78.8606 30.1065 78.6284 30.1278 78.3471 30.1278C77.921 30.1278 77.5034 30.0362 77.0943 29.853C76.6895 29.6697 76.3528 29.3906 76.0843 29.0156C75.8201 28.6406 75.688 28.1676 75.688 27.5966V17.8295ZM81.5623 30V20.1818H83.0197V21.7159H83.1475C83.3521 21.1918 83.6824 20.7848 84.1383 20.495C84.5943 20.201 85.1419 20.054 85.7811 20.054C86.4288 20.054 86.9679 20.201 87.3983 20.495C87.8329 20.7848 88.1717 21.1918 88.4146 21.7159H88.5169C88.7683 21.2088 89.1454 20.8061 89.6483 20.5078C90.1511 20.2053 90.7541 20.054 91.4572 20.054C92.3351 20.054 93.0531 20.3288 93.6113 20.8786C94.1696 21.424 94.4487 22.2741 94.4487 23.429V30H92.9402V23.429C92.9402 22.7045 92.742 22.1868 92.3457 21.8757C91.9494 21.5646 91.4828 21.4091 90.9458 21.4091C90.2555 21.4091 89.7207 21.6179 89.3414 22.0355C88.9622 22.4489 88.7726 22.973 88.7726 23.608V30H87.2385V23.2756C87.2385 22.7173 87.0574 22.2678 86.6951 21.9268C86.3329 21.5817 85.8663 21.4091 85.2953 21.4091C84.9032 21.4091 84.5368 21.5135 84.1958 21.7223C83.8592 21.9311 83.5865 22.2209 83.3777 22.5916C83.1731 22.9581 83.0708 23.3821 83.0708 23.8636V30H81.5623ZM101.323 30.2045C100.377 30.2045 99.5613 29.9957 98.8752 29.5781C98.1934 29.1562 97.6671 28.5682 97.2963 27.8139C96.9299 27.0554 96.7466 26.1733 96.7466 25.1676C96.7466 24.1619 96.9299 23.2756 97.2963 22.5085C97.6671 21.7372 98.1827 21.1364 98.8432 20.706C99.508 20.2713 100.284 20.054 101.17 20.054C101.681 20.054 102.186 20.1392 102.685 20.3097C103.183 20.4801 103.637 20.7571 104.046 21.1406C104.455 21.5199 104.781 22.0227 105.024 22.6491C105.267 23.2756 105.389 24.0469 105.389 24.9631V25.6023H97.8205V24.2983H103.855C103.855 23.7443 103.744 23.25 103.522 22.8153C103.305 22.3807 102.994 22.0376 102.589 21.7862C102.188 21.5348 101.715 21.4091 101.17 21.4091C100.569 21.4091 100.049 21.5582 99.6103 21.8565C99.1756 22.1506 98.8411 22.5341 98.6067 23.0071C98.3723 23.4801 98.2551 23.9872 98.2551 24.5284V25.3977C98.2551 26.1392 98.383 26.7678 98.6387 27.2834C98.8986 27.7947 99.2587 28.1847 99.7189 28.4531C100.179 28.7173 100.714 28.8494 101.323 28.8494C101.72 28.8494 102.078 28.794 102.397 28.6832C102.721 28.5682 103 28.3977 103.235 28.1719C103.469 27.9418 103.65 27.6562 103.778 27.3153L105.235 27.7244C105.082 28.2188 104.824 28.6534 104.462 29.0284C104.1 29.3991 103.652 29.6889 103.119 29.8977C102.587 30.1023 101.988 30.2045 101.323 30.2045ZM109.192 24.0938V30H107.683V20.1818H109.141V21.7159H109.269C109.499 21.2173 109.848 20.8168 110.317 20.5142C110.786 20.2074 111.391 20.054 112.132 20.054C112.797 20.054 113.379 20.1903 113.877 20.4631C114.376 20.7315 114.764 21.1406 115.041 21.6903C115.318 22.2358 115.456 22.9261 115.456 23.7614V30H113.948V23.8636C113.948 23.0923 113.747 22.4915 113.347 22.0611C112.946 21.6264 112.396 21.4091 111.698 21.4091C111.216 21.4091 110.786 21.5135 110.406 21.7223C110.031 21.9311 109.735 22.2358 109.518 22.6364C109.301 23.0369 109.192 23.5227 109.192 24.0938ZM122.483 20.1818V21.4602H117.395V20.1818H122.483ZM118.877 17.8295H120.386V27.1875C120.386 27.6136 120.448 27.9332 120.571 28.1463C120.699 28.3551 120.861 28.4957 121.057 28.5682C121.257 28.6364 121.468 28.6705 121.69 28.6705C121.856 28.6705 121.993 28.6619 122.099 28.6449C122.206 28.6236 122.291 28.6065 122.355 28.5938L122.662 29.9489C122.559 29.9872 122.417 30.0256 122.233 30.0639C122.05 30.1065 121.818 30.1278 121.537 30.1278C121.11 30.1278 120.693 30.0362 120.284 29.853C119.879 29.6697 119.542 29.3906 119.274 29.0156C119.01 28.6406 118.877 28.1676 118.877 27.5966V17.8295Z" fill="#008FF8"/>
</svg>
