<svg width="84" height="84" viewBox="0 0 84 84" fill="none" xmlns="http://www.w3.org/2000/svg">
<circle cx="42" cy="42" r="42" fill="#D2ECFF"/>
<g clip-path="url(#clip0_411_168)">
<path d="M63.7136 16.644C61.0385 13.6494 57.3566 12 53.3459 12C50.2052 12 46.8414 13.8559 44.3851 15.211C43.5716 15.6596 42.3574 16.3947 41.9993 16.3948C41.6429 16.395 40.4341 15.6617 39.6241 15.2134C37.1731 13.8574 33.8164 12 30.6535 12C26.6429 12 22.961 13.6494 20.286 16.644C17.7441 19.49 16.3442 23.2355 16.3442 27.1901C16.3442 29.7374 16.8124 32.73 17.5464 36.1278C18.2369 39.3247 20.4261 42.0161 25.0529 44.0526C26.4505 44.6679 28.9581 45.1479 29.4079 45.5978C29.9485 46.1383 30.5262 48.0906 30.5262 48.0906C30.5262 48.0906 30.6574 48.5507 30.4645 48.5507C29.3965 48.5507 28.5277 49.4196 28.5277 50.4874C28.5277 51.5552 29.3965 52.4241 30.4645 52.4241C30.4645 52.4241 31.3964 52.4241 31.7071 52.4241C31.9507 52.4241 32.0301 52.6745 32.0301 52.6745L32.7006 54.7445C32.7006 54.7445 32.7569 55.1243 32.3108 55.1243C31.243 55.1243 30.3743 55.993 30.3743 57.0608C30.3743 58.1285 31.243 58.9975 32.3108 58.9975C32.3108 58.9975 33.4607 58.9975 33.844 58.9975C34.1251 58.9975 34.219 59.2242 34.219 59.2242L34.9989 61.5575C34.9989 61.5575 35.0435 61.6979 34.8749 61.6979C34.6994 61.6979 34.1728 61.6979 34.1728 61.6979C33.1047 61.6979 32.2361 62.5668 32.2361 63.6346C32.2361 64.7027 33.1047 65.5713 34.1728 65.5713C34.1728 65.5713 35.6225 65.5713 36.1058 65.5713C36.3682 65.5713 36.409 65.7772 36.409 65.7772L37.6046 69.3542L37.6117 69.3729C38.325 71.1158 39.7687 72 41.9027 72H42.0213C44.1552 72 45.5988 71.1159 46.3172 69.3602C46.3172 69.3602 47.2139 66.6277 47.5452 65.7286C47.6109 65.5503 47.7327 65.5713 47.7327 65.5713H49.8268C50.8946 65.5713 51.7634 64.7027 51.7634 63.6346C51.7634 62.5668 51.2377 61.6979 49.8268 61.6979C49.5298 61.6979 49.2375 61.6988 49.1104 61.6988C48.9135 61.6988 49.0354 61.3614 49.0354 61.3614L49.7477 59.2152C49.7477 59.2152 49.7852 58.9979 49.9915 58.9979C50.4157 58.9979 51.6886 58.9979 51.6886 58.9979C52.7564 58.9979 53.6251 58.129 53.6251 57.0612C53.6251 55.9936 52.849 55.125 51.7812 55.125C51.5541 55.125 51.4751 55.1323 51.3876 55.1323C51.1534 55.1323 51.2845 54.8667 51.2845 54.8667C51.2845 54.8667 51.7914 53.1957 52.006 52.5519C52.053 52.4112 52.2029 52.4244 52.2029 52.4244H53.5347C54.6025 52.4244 55.4711 51.5555 55.4711 50.4877C55.4711 49.4199 54.6025 48.551 53.5347 48.551C53.365 48.551 53.3968 48.3269 53.4244 48.216C53.5994 47.5099 53.9264 46.0575 54.549 45.5981C55.1371 45.164 57.5061 44.6547 58.8737 44.0529C63.4008 42.0599 65.77 39.0505 66.3653 36.3112C67.1178 32.8488 67.6554 29.7166 67.6554 27.1902C67.6556 23.2355 66.2556 19.4905 63.7136 16.644ZM44.051 68.4527C43.6274 69.4789 42.3448 69.5586 41.962 69.5586C41.5799 69.5586 40.3028 69.4792 39.8757 68.4604L38.9548 65.6989C38.9548 65.6989 38.9327 65.5709 39.1109 65.5709C40.5899 65.5709 43.4722 65.5709 44.9258 65.5709C45.029 65.5709 45.0069 65.6302 45.0069 65.6302L44.051 68.4527ZM46.2738 61.6976C44.141 61.6976 39.8918 61.6976 37.7424 61.6976C37.6112 61.6976 37.5831 61.5673 37.5831 61.5673L36.7531 59.0969C36.7531 59.0969 36.7396 58.9976 36.9083 58.9976C39.4947 58.9976 44.5955 58.9976 47.1578 58.9976C47.2546 58.9976 47.2298 59.0692 47.2298 59.0692L46.3542 61.6526C46.3547 61.6525 46.3301 61.6976 46.2738 61.6976ZM48.6075 55.0321C48.6075 55.0321 48.5856 55.1243 48.4887 55.1243C47.5649 55.1243 38.6432 55.1243 35.5621 55.1243C35.4246 55.1243 35.3934 55.0383 35.3934 55.0383L34.5807 52.5809C34.5807 52.5809 34.528 52.4204 34.7342 52.4204C38.764 52.4204 45.6967 52.4241 49.3509 52.4241C49.4821 52.4241 49.4469 52.5255 49.4469 52.5255L48.6075 55.0321ZM50.5256 48.5501C46.2421 48.5501 33.4379 48.5406 33.4379 48.5406C33.4379 48.5406 33.3067 48.5406 33.2442 48.4094C33.0639 48.0312 32.7131 47.0912 32.5711 46.5547C32.4923 46.2574 32.7756 46.3476 32.7756 46.3476C35.7702 46.9207 38.6637 47.15 41.9633 47.15C45.3101 47.15 48.3269 46.8993 51.3566 46.3102C51.3566 46.3102 51.5691 46.2727 51.5196 46.4081C51.3549 46.8593 51.0236 47.8546 50.8724 48.3124C50.8235 48.4594 50.6755 48.5501 50.5256 48.5501ZM64.2207 35.5516C64.1171 36.0032 63.7866 36.8272 63.6155 37.2902C62.9766 39.0194 60.8006 40.5756 57.9045 41.8507C56.4176 42.5052 54.736 43.0635 52.9065 43.5097L52.5874 43.5868C49.3593 44.3439 45.6856 44.744 41.9632 44.744C38.3443 44.744 34.7643 44.3647 31.6008 43.6466L31.2896 43.5751C29.3577 43.1191 27.5859 42.5393 26.0221 41.851C23.1836 40.6014 20.8752 38.866 20.1893 37.1965C19.9691 36.6602 19.5988 35.3643 19.5988 35.3643C18.8595 32.2123 18.75 29.4754 18.75 27.1904C18.75 20.9061 23.2025 14.4062 30.6534 14.4062C32.5871 14.4062 35.1341 15.2912 37.4673 16.7737C37.808 16.9904 38.294 17.3639 38.7637 17.7253C38.9504 17.8688 39.1346 18.0102 39.3062 18.1397C39.8633 18.5564 40.616 19.1021 41.4977 19.6211C41.9615 19.8949 42.3835 20.1376 42.8504 20.336C44.7604 21.1466 46.7856 21.5578 48.8696 21.5578C50.996 21.5578 53.6078 21.0412 53.5718 20.746C53.5358 20.4507 49.1824 20.4507 46.2837 19.6828C45.1266 19.3765 43.8153 18.8799 43.8153 18.6077C43.8153 18.3176 44.2245 18.09 44.5457 17.8982C44.8258 17.7307 45.1435 17.5408 45.5485 17.3174C47.7754 16.0889 50.8249 14.4064 53.3458 14.4064C60.7967 14.4064 65.2492 20.9063 65.2492 27.1905C65.2494 29.4443 64.9534 32.361 64.2207 35.5516Z" fill="#008FF8"/>
</g>
<defs>
<clipPath id="clip0_411_168">
<rect width="60" height="60" fill="white" transform="translate(12 12)"/>
</clipPath>
</defs>
</svg>
